<?xml version="1.0" encoding="UTF-8" standalone="no"?>
<!-- Created with Inkscape (http://www.inkscape.org/) -->

<svg
   version="1.1"
   id="svg2"
   width="602.66669"
   height="284.95999"
   viewBox="0 0 602.66669 284.95999"
   sodipodi:docname="GIGA_horizontal_allcolour_RGB.eps"
   xmlns:inkscape="http://www.inkscape.org/namespaces/inkscape"
   xmlns:sodipodi="http://sodipodi.sourceforge.net/DTD/sodipodi-0.dtd"
   xmlns="http://www.w3.org/2000/svg"
   xmlns:svg="http://www.w3.org/2000/svg">
  <defs
     id="defs6" />
  <sodipodi:namedview
     id="namedview4"
     pagecolor="#ffffff"
     bordercolor="#000000"
     borderopacity="0.25"
     inkscape:showpageshadow="2"
     inkscape:pageopacity="0.0"
     inkscape:pagecheckerboard="0"
     inkscape:deskcolor="#d1d1d1" />
  <g
     id="g8"
     inkscape:groupmode="layer"
     inkscape:label="ink_ext_XXXXXX"
     transform="matrix(1.3333333,0,0,-1.3333333,0,284.96)">
    <g
       id="g10"
       transform="scale(0.1)">
      <path
         d="m 2484.99,2088.02 c 7.37,13.36 4.68,30 -6.53,40.35 -11.2,10.34 -28.03,11.71 -40.74,3.3 -365.42,-241.46 -825.67,-594.32 -1181.16,-1027.88 -141.54,53.3 -272.673,91.33 -390.177,118.26 0.047,-1.46 0.222,-2.88 0.222,-4.35 0,-22.15 -5.378,-43.02 -14.699,-61.59 111.961,-25.46 232.764,-60.17 360.694,-107.06 C 1113.76,923.43 1024.07,791.391 948.305,653.551 878.102,525.852 830.891,413.488 799,319.711 c -7.012,55.648 -18.203,115.988 -35.648,179.019 -62.657,226.418 -219.36,525.56 -607.641,716.85 95.125,7.43 245.258,10.53 436.289,-13.47 -0.582,5.12 -0.945,10.31 -0.945,15.59 0,18.18 3.629,35.51 10.05,51.41 -349.816,43.91 -565.3081,-1.04 -574.9644,-3.13 -14.2578,-3.08 -24.8281,-15.12 -26.027319,-29.67 -1.195311,-14.54 7.269529,-28.16 20.843719,-33.52 355.82,-140.72 583.871,-382.7 677.832,-719.208 29.063,-104.113 40.102,-201.684 43.039,-280.641 16.902,7.418 35.543,11.61 55.16,11.61 3.731,0 7.391,-0.27 11.047,-0.563 9.207,-0.738 18.149,-2.379 26.762,-4.84 28.734,105.422 80.629,248.082 174.653,418.063 76.63,138.531 167.76,271.129 268.19,397.189 109.5,-42.92 223.79,-94.759 341.84,-157.271 7.27,21.48 19.68,40.551 35.79,55.832 -115.77,61.57 -227.41,112.889 -333.66,155.529 318.07,383.16 719.05,702.18 1057.57,933.94 -25.34,-65.85 -56.69,-161.55 -83.8,-286.38 1.79,0.07 3.54,0.27 5.35,0.27 21.59,0 41.97,-5.13 60.18,-14.03 7.01,32.29 14.15,62.24 21.18,89.13 48.87,187 102.39,285.66 102.9,286.6"
         style="fill:#4d6dbe;fill-opacity:1;fill-rule:nonzero;stroke:none"
         id="path12" />
      <path
         d="m 2252.25,1459.71 c -15.11,-136.09 -22.6,-292.75 -16.23,-469.562 -57.12,-11.378 -193.5,-41.656 -365.33,-100.816 10.7,-19.422 16.82,-41.672 16.98,-65.332 220.62,76.582 383.9,105.492 388.14,106.211 16.48,2.801 28.3,17.43 27.56,34.129 -8.19,185.92 -0.21,349.13 15.3,487.71 -5.88,-0.77 -11.84,-1.31 -17.94,-1.31 -17.08,0 -33.37,3.27 -48.48,8.97"
         style="fill:#4d6dbe;fill-opacity:1;fill-rule:nonzero;stroke:none"
         id="path14" />
      <path
         d="m 2106.71,558.02 c -104.95,1.5 -277.23,-3.028 -470.75,-36.231 -257.57,-44.18 -474.63,-127.098 -643.636,-243.957 187.256,205.25 431.526,350.918 656.696,451.758 -15.32,16.519 -26.6,36.769 -32.39,59.25 -251.07,-113.02 -560.55,-298.961 -768.989,-584.059 11.078,-4.402 21.41,-10.211 30.863,-17.191 17.902,-13.199 32.469,-30.59 42.293,-50.75 448.793,414.719 1277.533,351.519 1286.733,350.769 14.59,-1.16 28.26,7.301 33.6,20.922 5.35,13.629 1.12,29.16 -10.4,38.18 -117.92,92.359 -233.92,173.187 -347,244.059 -5.37,-22.18 -16.09,-42.258 -30.76,-58.821 83.28,-52.367 167.96,-110.129 253.74,-173.929"
         style="fill:#4d6dbe;fill-opacity:1;fill-rule:nonzero;stroke:none"
         id="path16" />
      <path
         d="m 1749.92,899.859 c -16.99,0 -32.55,-5.73 -45.28,-15.109 -16.61,-12.238 -28.24,-30.859 -30.89,-52.301 -0.38,-3.058 -0.58,-6.179 -0.58,-9.34 0,-31.75 19.37,-59.05 46.9,-70.718 9.19,-3.903 19.28,-6.051 29.85,-6.051 5.29,0 10.46,0.539 15.46,1.558 34.94,7.172 61.3,38.172 61.3,75.211 0,42.321 -34.42,76.75 -76.76,76.75"
         style="fill:#201f1e;fill-opacity:1;fill-rule:nonzero;stroke:none"
         id="path18" />
      <path
         d="m 713.391,1142.5 c 4.992,-1.03 10.16,-1.57 15.453,-1.57 42.304,0 76.734,34.45 76.734,76.77 0,42.32 -34.43,76.75 -76.734,76.75 -42.34,0 -76.758,-34.43 -76.758,-76.75 0,-37.03 26.348,-68.03 61.305,-75.2"
         style="fill:#201f1e;fill-opacity:1;fill-rule:nonzero;stroke:none"
         id="path20" />
      <path
         d="m 2251.62,1647.02 c -8.39,-7.04 -15.29,-15.78 -20.1,-25.7 -4.82,-9.91 -7.54,-21.02 -7.54,-32.79 0,-3.31 0.21,-6.57 0.61,-9.77 2.86,-22.38 15.38,-41.78 33.25,-53.86 12.25,-8.28 27.02,-13.13 42.89,-13.13 10.58,0 20.67,2.15 29.85,6.04 21.86,9.26 38.32,28.49 44.28,51.85 0.78,3.04 1.43,6.12 1.89,9.25 0.47,3.14 0.73,6.34 0.73,9.62 0,42.32 -34.42,76.76 -76.75,76.76 -18.77,0 -35.76,-7.04 -49.11,-18.27"
         style="fill:#201f1e;fill-opacity:1;fill-rule:nonzero;stroke:none"
         id="path22" />
      <path
         d="m 851.238,131.012 c -0.73,0.726 -1.64,1.277 -2.398,1.976 -6.461,5.961 -13.789,11.012 -22,14.481 -9.18,3.89 -19.266,6.051 -29.852,6.051 -42.308,0 -76.734,-34.438 -76.734,-76.7583 0,-26.4531 13.445,-49.8203 33.859,-63.6406 4.082,-2.7617 8.446,-5.14063 13.035,-7.08204 C 776.328,2.14844 786.406,0 796.988,0 c 20.254,0 38.703,7.87891 52.434,20.7422 1.957,1.8398 3.828,3.7773 5.586,5.8086 2.012,2.3281 3.883,4.7695 5.609,7.3203 8.285,12.2578 13.125,27.0195 13.125,42.8906 0,20.2383 -8.019,38.5393 -20.863,52.2583 -0.59,0.628 -1.031,1.378 -1.641,1.992"
         style="fill:#201f1e;fill-opacity:1;fill-rule:nonzero;stroke:none"
         id="path24" />
      <path
         d="m 2932.66,1054.17 c 0,-27.46 6.25,-49.18 18.78,-65.158 12.51,-16 31.6,-23.992 57.24,-23.992 25.94,0 44.95,7.992 57.02,23.992 12.06,15.978 18.1,37.698 18.1,65.158 0,60.94 -25.04,91.41 -75.12,91.41 -50.68,0 -76.02,-30.47 -76.02,-91.41 z m -50.23,-411.811 c 0,-19 9.12,-33.937 27.37,-44.8 18.25,-10.86 43.82,-16.289 76.71,-16.289 49.47,0 88.24,6.789 116.3,20.371 28.06,13.57 42.09,32.121 42.09,55.66 0,19.008 -8.31,32.129 -24.89,39.371 -16.6,7.238 -42.25,10.859 -76.94,10.859 h -71.5 c -25.34,0 -46.54,-5.949 -63.58,-17.871 -17.04,-11.922 -25.56,-27.68 -25.56,-47.301 z m 390.53,577.441 v -70.15 l -79.19,-20.36 c 14.48,-22.62 21.72,-47.97 21.72,-76.02 0,-54.309 -18.94,-96.622 -56.79,-126.938 -37.87,-30.32 -90.44,-45.48 -157.71,-45.48 l -24.89,1.359 -20.36,2.258 c -14.19,-10.86 -21.27,-22.93 -21.27,-36.199 0,-19.911 25.34,-29.872 76.02,-29.872 h 85.98 c 55.51,0 97.82,-11.918 126.94,-35.75 29.11,-23.839 43.67,-58.828 43.67,-104.988 0,-59.121 -24.67,-104.988 -73.99,-137.57 -49.33,-32.578 -120.15,-48.871 -212.46,-48.871 -70.6,0 -124.53,12.301 -161.79,36.883 -37.26,24.589 -55.88,59.058 -55.88,103.398 0,30.48 9.5,55.969 28.51,76.48 19,20.52 46.9,35.141 83.71,43.899 -14.18,6.031 -26.55,15.91 -37.1,29.641 -10.57,13.718 -15.84,28.281 -15.84,43.671 0,19.301 5.58,35.368 16.74,48.188 11.16,12.82 27.3,25.41 48.42,37.793 -26.55,11.457 -47.59,29.867 -63.13,55.207 -15.54,25.34 -23.3,55.211 -23.3,89.601 0,55.21 17.95,97.9 53.85,128.07 35.9,30.16 87.18,45.25 153.86,45.25 14.18,0 31,-1.28 50.46,-3.84 19.46,-2.57 31.9,-4.46 37.33,-5.66 h 176.49"
         style="fill:#201f1e;fill-opacity:1;fill-rule:nonzero;stroke:none"
         id="path26" />
      <path
         d="M 3476.37,713.871 H 3338.34 V 1219.8 h 138.03 z m -143.91,636.709 c 0,44.95 25.04,67.43 75.12,67.43 50.08,0 75.12,-22.48 75.12,-67.43 0,-21.42 -6.27,-38.09 -18.78,-50 -12.52,-11.92 -31.3,-17.88 -56.34,-17.88 -50.08,0 -75.12,22.62 -75.12,67.88"
         style="fill:#201f1e;fill-opacity:1;fill-rule:nonzero;stroke:none"
         id="path28" />
      <path
         d="m 3703.76,1054.17 c 0,-27.46 6.26,-49.18 18.78,-65.158 12.52,-16 31.6,-23.992 57.25,-23.992 25.94,0 44.95,7.992 57.02,23.992 12.06,15.978 18.1,37.698 18.1,65.158 0,60.94 -25.05,91.41 -75.12,91.41 -50.69,0 -76.03,-30.47 -76.03,-91.41 z m -50.23,-411.811 c 0,-19 9.12,-33.937 27.38,-44.8 18.25,-10.86 43.82,-16.289 76.7,-16.289 49.48,0 88.25,6.789 116.31,20.371 28.05,13.57 42.08,32.121 42.08,55.66 0,19.008 -8.3,32.129 -24.89,39.371 -16.59,7.238 -42.24,10.859 -76.93,10.859 h -71.5 c -25.34,0 -46.54,-5.949 -63.58,-17.871 -17.05,-11.922 -25.57,-27.68 -25.57,-47.301 z m 390.54,577.441 v -70.15 l -79.2,-20.36 c 14.49,-22.62 21.73,-47.97 21.73,-76.02 0,-54.309 -18.94,-96.622 -56.8,-126.938 -37.86,-30.32 -90.43,-45.48 -157.7,-45.48 l -24.89,1.359 -20.37,2.258 c -14.18,-10.86 -21.27,-22.93 -21.27,-36.199 0,-19.911 25.34,-29.872 76.03,-29.872 h 85.98 c 55.51,0 97.82,-11.918 126.93,-35.75 29.12,-23.839 43.68,-58.828 43.68,-104.988 0,-59.121 -24.67,-104.988 -73.99,-137.57 -49.33,-32.578 -120.15,-48.871 -212.47,-48.871 -70.59,0 -124.52,12.301 -161.78,36.883 -37.26,24.589 -55.89,59.058 -55.89,103.398 0,30.48 9.51,55.969 28.51,76.48 19.01,20.52 46.91,35.141 83.72,43.899 -14.18,6.031 -26.55,15.91 -37.11,29.641 -10.56,13.718 -15.84,28.281 -15.84,43.671 0,19.301 5.58,35.368 16.75,48.188 11.16,12.82 27.3,25.41 48.42,37.793 -26.55,11.457 -47.59,29.867 -63.13,55.207 -15.54,25.34 -23.31,55.211 -23.31,89.601 0,55.21 17.95,97.9 53.86,128.07 35.89,30.16 87.18,45.25 153.86,45.25 14.17,0 31,-1.28 50.46,-3.84 19.45,-2.57 31.9,-4.46 37.33,-5.66 h 176.49"
         style="fill:#201f1e;fill-opacity:1;fill-rule:nonzero;stroke:none"
         id="path30" />
      <path
         d="m 4382.88,948.281 -53.4,-1.812 c -40.13,-1.207 -69.99,-8.449 -89.6,-21.719 -19.61,-13.289 -29.41,-33.488 -29.41,-60.641 0,-38.918 22.32,-58.379 66.97,-58.379 31.98,0 57.54,9.2 76.71,27.602 19.15,18.398 28.73,42.84 28.73,73.309 z m 40.73,-234.41 -26.7,68.777 h -3.62 c -23.23,-29.269 -47.14,-49.546 -71.73,-60.867 -24.59,-11.312 -56.64,-16.972 -96.16,-16.972 -48.58,0 -86.82,13.882 -114.72,41.64 -27.91,27.75 -41.86,67.27 -41.86,118.563 0,53.699 18.78,93.297 56.35,118.789 37.55,25.489 94.19,39.599 169.92,42.309 l 87.79,2.72 v 22.18 c 0,51.28 -26.24,76.92 -78.74,76.92 -40.43,0 -87.95,-12.21 -142.55,-36.65 l -45.7,93.22 c 58.22,30.47 122.78,45.71 193.68,45.71 67.88,0 119.92,-14.79 156.13,-44.35 36.2,-29.57 54.3,-74.52 54.3,-134.85 V 713.871 h -96.39"
         style="fill:#201f1e;fill-opacity:1;fill-rule:nonzero;stroke:none"
         id="path32" />
    </g>
  </g>
</svg>
